<mxfile host="Electron" modified="2024-08-26T01:48:27.105Z" agent="Mozilla/5.0 (X11; Linux x86_64) AppleWebKit/537.36 (KHTML, like Gecko) draw.io/24.6.4 Chrome/124.0.6367.207 Electron/30.0.6 Safari/537.36" etag="LH-msiqu8zAb0zgxLS4u" version="24.6.4" type="device">
  <diagram name="Network Connections" id="8okYg0xe6ZCimWp-EQ01">
    <mxGraphModel dx="1434" dy="855" grid="1" gridSize="10" guides="1" tooltips="1" connect="1" arrows="1" fold="1" page="1" pageScale="1" pageWidth="1100" pageHeight="850" math="0" shadow="0">
      <root>
        <mxCell id="zufN4GOXAOS7TrHpWiHL-0" />
        <mxCell id="zufN4GOXAOS7TrHpWiHL-1" parent="zufN4GOXAOS7TrHpWiHL-0" />
        <mxCell id="zufN4GOXAOS7TrHpWiHL-2" value="Longer Title for Test" style="swimlane;strokeWidth=1;" parent="zufN4GOXAOS7TrHpWiHL-1" vertex="1">
          <mxGeometry x="40" y="200" width="160" height="220" as="geometry" />
        </mxCell>
        <mxCell id="eyqJWnIvSY4KyNdMeH8T-4" style="edgeStyle=orthogonalEdgeStyle;rounded=0;orthogonalLoop=1;jettySize=auto;html=1;" parent="zufN4GOXAOS7TrHpWiHL-2" source="eyqJWnIvSY4KyNdMeH8T-2" target="eyqJWnIvSY4KyNdMeH8T-3" edge="1">
          <mxGeometry relative="1" as="geometry" />
        </mxCell>
        <mxCell id="eyqJWnIvSY4KyNdMeH8T-2" value="" style="rounded=0;whiteSpace=wrap;html=1;" parent="zufN4GOXAOS7TrHpWiHL-2" vertex="1">
          <mxGeometry x="20" y="40" width="120" height="60" as="geometry" />
        </mxCell>
        <mxCell id="eyqJWnIvSY4KyNdMeH8T-3" value="" style="rounded=0;whiteSpace=wrap;html=1;" parent="zufN4GOXAOS7TrHpWiHL-2" vertex="1">
          <mxGeometry x="20" y="140" width="120" height="60" as="geometry" />
        </mxCell>
        <mxCell id="xko8F7Nch2XtAhjXtTPD-0" value="&lt;h1 style=&quot;margin-top: 0px;&quot;&gt;Heading&lt;/h1&gt;&lt;p&gt;Lorem ipsum dolor sit amet, consectetur adipisicing elit, sed do eiusmod tempor incididunt ut labore et dolore magna aliqua.&lt;/p&gt;" style="text;html=1;whiteSpace=wrap;overflow=hidden;rounded=0;strokeColor=default;" parent="zufN4GOXAOS7TrHpWiHL-1" vertex="1">
          <mxGeometry x="40" y="40" width="180" height="110" as="geometry" />
        </mxCell>
      </root>
    </mxGraphModel>
  </diagram>
</mxfile>
